<svg width="350" height="200" viewBox="0 0 350 200" fill="none" xmlns="http://www.w3.org/2000/svg">
<g clip-path="url(#clip0_26_2)">
<rect width="350" height="200" fill="#0FBD8C"/>
<path d="M218.797 128.397L256.791 122.623C261.811 117.216 268.119 112.23 275.985 107.889C283.677 103.248 291.149 100.277 298.342 98.6333L322.339 68.6172C328.028 63.8156 336.671 65.9553 339.015 72.7462L351.98 105.333C364.643 114.943 373.825 126.715 378.298 134.462C389.788 154.363 395.408 184.203 338.885 216.836C282.363 249.469 259.331 229.683 247.841 209.781C243.368 202.034 237.765 188.196 235.774 172.425L214.035 144.903C209.326 139.478 211.795 130.923 218.797 128.397Z" fill="#0FBD8C"/>
<path fill-rule="evenodd" clip-rule="evenodd" d="M217.656 123.793L217.213 123.952C207.299 127.528 203.435 139.836 210.348 147.924L231.229 174.361C233.44 190.256 239.081 204.143 243.713 212.165C249.771 222.659 259.287 233.835 275.342 237.613C291.288 241.365 312.48 237.529 341.245 220.922C370.009 204.315 383.927 187.879 388.65 172.195C393.407 156.401 388.485 142.572 382.427 132.079C377.795 124.056 368.589 112.228 355.929 102.366L343.475 71.0634C339.927 61.0318 327.335 58.2251 319.282 65.0226L318.922 65.3264L295.659 94.4242C288.484 96.245 281.121 99.2909 273.626 103.803C265.97 108.038 259.652 112.891 254.487 118.195L217.656 123.793ZM256.791 122.623C261.811 117.216 268.12 112.231 275.986 107.89C283.677 103.249 291.15 100.278 298.342 98.6339L322.339 68.6177C328.028 63.8161 336.671 65.9558 339.015 72.7467L351.981 105.334C364.643 114.943 373.826 126.715 378.298 134.462C389.788 154.363 395.408 184.203 338.886 216.836C282.363 249.469 259.331 229.683 247.841 209.782C243.368 202.035 237.765 188.196 235.774 172.426L214.036 144.904C209.327 139.478 211.795 130.923 218.798 128.398L256.791 122.623Z" fill="#0FBD8C"/>
<path fill-rule="evenodd" clip-rule="evenodd" d="M217.656 123.793L217.213 123.952C207.299 127.528 203.435 139.836 210.348 147.924L231.229 174.361C233.44 190.256 239.081 204.143 243.713 212.165C249.771 222.659 259.287 233.835 275.342 237.613C291.288 241.365 312.48 237.529 341.245 220.922C370.009 204.315 383.927 187.879 388.65 172.195C393.407 156.401 388.485 142.572 382.427 132.079C377.795 124.056 368.589 112.228 355.929 102.366L343.475 71.0634C339.927 61.0318 327.335 58.2251 319.282 65.0226L318.922 65.3264L295.659 94.4242C288.484 96.245 281.121 99.2909 273.626 103.803C265.97 108.038 259.652 112.891 254.487 118.195L217.656 123.793ZM256.791 122.623C261.811 117.216 268.12 112.231 275.986 107.89C283.677 103.249 291.15 100.278 298.342 98.6339L322.339 68.6177C328.028 63.8161 336.671 65.9558 339.015 72.7467L351.981 105.334C364.643 114.943 373.826 126.715 378.298 134.462C389.788 154.363 395.408 184.203 338.886 216.836C282.363 249.469 259.331 229.683 247.841 209.782C243.368 202.035 237.765 188.196 235.774 172.426L214.036 144.904C209.327 139.478 211.795 130.923 218.798 128.398L256.791 122.623Z" fill="black" fill-opacity="0.5"/>
<path d="M336.291 212.342C363.652 196.546 381.482 176.206 371.19 158.38C360.899 140.554 329.25 130.338 299.022 147.79C268.793 165.242 261.817 197.759 272.109 215.585C282.401 233.411 308.931 228.139 336.291 212.342Z" fill="#F2F2F2"/>
<path d="M303.091 136.724L310.639 149.797C312.724 153.408 317.371 154.627 321.019 152.521C324.667 150.415 325.934 145.78 323.85 142.17L316.302 129.096C314.217 125.486 309.57 124.267 305.922 126.373C302.274 128.479 301.007 133.113 303.091 136.724Z" fill="#0FBD8C"/>
<path d="M303.091 136.724L310.639 149.797C312.724 153.408 317.371 154.627 321.019 152.521C324.667 150.415 325.934 145.78 323.85 142.17L316.302 129.096C314.217 125.486 309.57 124.267 305.922 126.373C302.274 128.479 301.007 133.113 303.091 136.724Z" fill="black" fill-opacity="0.5"/>
<path d="M274.192 153.408L281.741 166.482C283.825 170.093 288.472 171.312 292.12 169.206C295.768 167.099 297.036 162.465 294.952 158.855L287.403 145.781C285.319 142.171 280.672 140.951 277.024 143.058C273.376 145.164 272.108 149.798 274.192 153.408Z" fill="#0FBD8C"/>
<path d="M274.192 153.408L281.741 166.482C283.825 170.093 288.472 171.312 292.12 169.206C295.768 167.099 297.036 162.465 294.952 158.855L287.403 145.781C285.319 142.171 280.672 140.951 277.024 143.058C273.376 145.164 272.108 149.798 274.192 153.408Z" fill="black" fill-opacity="0.5"/>
<path d="M311.819 165.665C313.533 163.902 314.132 161.567 313.211 159.972C312.03 157.926 309.299 158.744 306.335 160.455C303.37 162.167 301.296 164.123 302.477 166.169C303.398 167.764 305.72 168.413 308.104 167.81L309.902 170.924C311.596 173.858 310.566 177.623 307.603 179.334C305.986 180.267 304.127 180.396 302.497 179.845C301.527 179.516 300.299 179.914 300.035 180.904L299.913 181.36C299.633 182.412 300.102 183.548 301.135 183.892C303.882 184.806 307.006 184.581 309.726 183.011C312.672 181.31 314.488 178.41 314.905 175.3C317.806 176.494 321.226 176.371 324.172 174.67C326.892 173.1 328.649 170.507 329.231 167.671C329.449 166.605 328.7 165.63 327.649 165.347L327.193 165.224C326.203 164.958 325.245 165.823 325.044 166.827C324.707 168.515 323.666 170.059 322.049 170.993C319.086 172.704 315.31 171.713 313.617 168.78L311.819 165.665Z" fill="#0FBD8C"/>
<path d="M311.819 165.665C313.533 163.902 314.132 161.567 313.211 159.972C312.03 157.926 309.299 158.744 306.335 160.455C303.37 162.167 301.296 164.123 302.477 166.169C303.398 167.764 305.72 168.413 308.104 167.81L309.902 170.924C311.596 173.858 310.566 177.623 307.603 179.334C305.986 180.267 304.127 180.396 302.497 179.845C301.527 179.516 300.299 179.914 300.035 180.904L299.913 181.36C299.633 182.412 300.102 183.548 301.135 183.892C303.882 184.806 307.006 184.581 309.726 183.011C312.672 181.31 314.488 178.41 314.905 175.3C317.806 176.494 321.226 176.371 324.172 174.67C326.892 173.1 328.649 170.507 329.231 167.671C329.449 166.605 328.7 165.63 327.649 165.347L327.193 165.224C326.203 164.958 325.245 165.823 325.044 166.827C324.707 168.515 323.666 170.059 322.049 170.993C319.086 172.704 315.31 171.713 313.617 168.78L311.819 165.665Z" fill="black" fill-opacity="0.5"/>
<path d="M28.5985 85.8148C28.5195 85.8148 28.4523 85.7911 28.397 85.7437C28.3496 85.6884 28.3259 85.6212 28.3259 85.5422V78.5733H26.0504C25.9714 78.5733 25.9042 78.5496 25.8489 78.5022C25.8015 78.4469 25.7778 78.3798 25.7778 78.3007V77.803C25.7778 77.7161 25.8015 77.6489 25.8489 77.6015C25.9042 77.5462 25.9714 77.5185 26.0504 77.5185H31.763C31.8499 77.5185 31.917 77.5462 31.9644 77.6015C32.0197 77.6489 32.0474 77.7161 32.0474 77.803V78.3007C32.0474 78.3798 32.0197 78.4469 31.9644 78.5022C31.917 78.5496 31.8499 78.5733 31.763 78.5733H29.4993V85.5422C29.4993 85.6212 29.4716 85.6884 29.4163 85.7437C29.3689 85.7911 29.3017 85.8148 29.2148 85.8148H28.5985ZM33.2633 85.8148C33.1843 85.8148 33.1172 85.7911 33.0618 85.7437C33.0144 85.6884 32.9907 85.6212 32.9907 85.5422V77.6726C32.9907 77.5936 33.0144 77.5304 33.0618 77.483C33.1172 77.4277 33.1843 77.4 33.2633 77.4H33.8559C33.9428 77.4 34.01 77.4277 34.0574 77.483C34.1048 77.5304 34.1285 77.5936 34.1285 77.6726V80.4341C34.3418 80.1654 34.6026 79.9482 34.9107 79.7822C35.2189 79.6163 35.61 79.5333 36.0841 79.5333C36.5976 79.5333 37.0322 79.6479 37.3878 79.877C37.7512 80.0983 38.0238 80.4104 38.2056 80.8133C38.3952 81.2084 38.49 81.6706 38.49 82.2V85.5422C38.49 85.6212 38.4663 85.6884 38.4189 85.7437C38.3715 85.7911 38.3043 85.8148 38.2174 85.8148H37.6248C37.5458 85.8148 37.4786 85.7911 37.4233 85.7437C37.3759 85.6884 37.3522 85.6212 37.3522 85.5422V82.2593C37.3522 81.7062 37.2179 81.2756 36.9493 80.9674C36.6806 80.6514 36.2856 80.4933 35.7641 80.4933C35.2742 80.4933 34.8791 80.6514 34.5789 80.9674C34.2786 81.2756 34.1285 81.7062 34.1285 82.2593V85.5422C34.1285 85.6212 34.1048 85.6884 34.0574 85.7437C34.01 85.7911 33.9428 85.8148 33.8559 85.8148H33.2633ZM42.6544 85.9333C41.8406 85.9333 41.1927 85.6844 40.7107 85.1867C40.2288 84.681 39.9641 83.9936 39.9167 83.1244C39.9088 83.0217 39.9048 82.8914 39.9048 82.7333C39.9048 82.5674 39.9088 82.4331 39.9167 82.3304C39.9483 81.7694 40.0786 81.2795 40.3078 80.8607C40.5369 80.4341 40.849 80.1062 41.2441 79.877C41.647 79.6479 42.1172 79.5333 42.6544 79.5333C43.2549 79.5333 43.7567 79.6598 44.1596 79.9126C44.5705 80.1654 44.8826 80.5249 45.0959 80.9911C45.3093 81.4573 45.4159 82.0025 45.4159 82.6267V82.8282C45.4159 82.9151 45.3883 82.9822 45.333 83.0296C45.2856 83.077 45.2223 83.1007 45.1433 83.1007H41.0426C41.0426 83.1086 41.0426 83.1244 41.0426 83.1482C41.0426 83.1719 41.0426 83.1916 41.0426 83.2074C41.0584 83.5314 41.1295 83.8356 41.2559 84.12C41.3823 84.3965 41.5641 84.6217 41.8011 84.7956C42.0381 84.9694 42.3226 85.0563 42.6544 85.0563C42.9389 85.0563 43.1759 85.0128 43.3656 84.9259C43.5552 84.839 43.7093 84.7442 43.8278 84.6415C43.9463 84.5309 44.0253 84.4479 44.0648 84.3926C44.1359 84.2899 44.1912 84.2306 44.2307 84.2148C44.2702 84.1911 44.3335 84.1793 44.4204 84.1793H44.9893C45.0683 84.1793 45.1315 84.203 45.1789 84.2504C45.2342 84.2899 45.2579 84.3491 45.25 84.4282C45.2421 84.5467 45.1789 84.6928 45.0604 84.8667C44.9418 85.0326 44.772 85.1985 44.5507 85.3644C44.3295 85.5304 44.0609 85.6686 43.7448 85.7793C43.4288 85.882 43.0653 85.9333 42.6544 85.9333ZM41.0426 82.283H44.29V82.2474C44.29 81.8919 44.2228 81.5758 44.0885 81.2993C43.9621 81.0227 43.7764 80.8054 43.5315 80.6474C43.2865 80.4815 42.9942 80.3985 42.6544 80.3985C42.3147 80.3985 42.0223 80.4815 41.7774 80.6474C41.5404 80.8054 41.3586 81.0227 41.2322 81.2993C41.1058 81.5758 41.0426 81.8919 41.0426 82.2474V82.283ZM50.1648 85.8148C50.0858 85.8148 50.0186 85.7911 49.9633 85.7437C49.9159 85.6884 49.8922 85.6212 49.8922 85.5422V77.803C49.8922 77.7161 49.9159 77.6489 49.9633 77.6015C50.0186 77.5462 50.0858 77.5185 50.1648 77.5185H50.7574C50.8522 77.5185 50.9233 77.5422 50.9707 77.5896C51.0181 77.637 51.0458 77.6765 51.0537 77.7082L53.5663 82.4963L56.0907 77.7082C56.1065 77.6765 56.1342 77.637 56.1737 77.5896C56.2211 77.5422 56.2922 77.5185 56.387 77.5185H56.9678C57.0547 77.5185 57.1218 77.5462 57.1693 77.6015C57.2246 77.6489 57.2522 77.7161 57.2522 77.803V85.5422C57.2522 85.6212 57.2246 85.6884 57.1693 85.7437C57.1218 85.7911 57.0547 85.8148 56.9678 85.8148H56.387C56.308 85.8148 56.2409 85.7911 56.1856 85.7437C56.1381 85.6884 56.1144 85.6212 56.1144 85.5422V79.7111L54.1352 83.5748C54.1036 83.6538 54.0562 83.717 53.993 83.7644C53.9297 83.804 53.8507 83.8237 53.7559 83.8237H53.3885C53.2858 83.8237 53.2028 83.804 53.1396 83.7644C53.0843 83.717 53.0369 83.6538 52.9974 83.5748L51.0181 79.7111V85.5422C51.0181 85.6212 50.9905 85.6884 50.9352 85.7437C50.8878 85.7911 50.8246 85.8148 50.7456 85.8148H50.1648ZM61.6012 85.9333C60.7874 85.9333 60.1395 85.6844 59.6575 85.1867C59.1755 84.681 58.9108 83.9936 58.8634 83.1244C58.8555 83.0217 58.8516 82.8914 58.8516 82.7333C58.8516 82.5674 58.8555 82.4331 58.8634 82.3304C58.895 81.7694 59.0254 81.2795 59.2545 80.8607C59.4837 80.4341 59.7958 80.1062 60.1908 79.877C60.5938 79.6479 61.0639 79.5333 61.6012 79.5333C62.2017 79.5333 62.7034 79.6598 63.1064 79.9126C63.5172 80.1654 63.8293 80.5249 64.0427 80.9911C64.256 81.4573 64.3627 82.0025 64.3627 82.6267V82.8282C64.3627 82.9151 64.335 82.9822 64.2797 83.0296C64.2323 83.077 64.1691 83.1007 64.0901 83.1007H59.9893C59.9893 83.1086 59.9893 83.1244 59.9893 83.1482C59.9893 83.1719 59.9893 83.1916 59.9893 83.2074C60.0051 83.5314 60.0763 83.8356 60.2027 84.12C60.3291 84.3965 60.5108 84.6217 60.7479 84.7956C60.9849 84.9694 61.2693 85.0563 61.6012 85.0563C61.8856 85.0563 62.1227 85.0128 62.3123 84.9259C62.5019 84.839 62.656 84.7442 62.7745 84.6415C62.8931 84.5309 62.9721 84.4479 63.0116 84.3926C63.0827 84.2899 63.138 84.2306 63.1775 84.2148C63.217 84.1911 63.2802 84.1793 63.3671 84.1793H63.936C64.015 84.1793 64.0782 84.203 64.1256 84.2504C64.181 84.2899 64.2047 84.3491 64.1968 84.4282C64.1889 84.5467 64.1256 84.6928 64.0071 84.8667C63.8886 85.0326 63.7187 85.1985 63.4975 85.3644C63.2763 85.5304 63.0076 85.6686 62.6916 85.7793C62.3755 85.882 62.0121 85.9333 61.6012 85.9333ZM59.9893 82.283H63.2368V82.2474C63.2368 81.8919 63.1696 81.5758 63.0353 81.2993C62.9089 81.0227 62.7232 80.8054 62.4782 80.6474C62.2333 80.4815 61.941 80.3985 61.6012 80.3985C61.2614 80.3985 60.9691 80.4815 60.7242 80.6474C60.4871 80.8054 60.3054 81.0227 60.179 81.2993C60.0526 81.5758 59.9893 81.8919 59.9893 82.2474V82.283ZM68.3043 85.9333C67.7038 85.9333 67.202 85.8188 66.7991 85.5896C66.3961 85.3605 66.088 85.0444 65.8746 84.6415C65.6613 84.2306 65.5428 83.7644 65.5191 83.243C65.5112 83.1086 65.5072 82.9388 65.5072 82.7333C65.5072 82.52 65.5112 82.3501 65.5191 82.2237C65.5428 81.6943 65.6613 81.2282 65.8746 80.8252C66.0959 80.4222 66.408 80.1062 66.8109 79.877C67.2139 79.6479 67.7117 79.5333 68.3043 79.5333C68.8968 79.5333 69.3946 79.6479 69.7976 79.877C70.2006 80.1062 70.5087 80.4222 70.722 80.8252C70.9433 81.2282 71.0657 81.6943 71.0894 82.2237C71.0973 82.3501 71.1013 82.52 71.1013 82.7333C71.1013 82.9388 71.0973 83.1086 71.0894 83.243C71.0657 83.7644 70.9472 84.2306 70.7339 84.6415C70.5206 85.0444 70.2124 85.3605 69.8094 85.5896C69.4065 85.8188 68.9048 85.9333 68.3043 85.9333ZM68.3043 85.0207C68.7941 85.0207 69.1852 84.8667 69.4776 84.5585C69.7699 84.2425 69.928 83.7842 69.9517 83.1837C69.9596 83.0652 69.9635 82.9151 69.9635 82.7333C69.9635 82.5516 69.9596 82.4015 69.9517 82.283C69.928 81.6825 69.7699 81.2282 69.4776 80.92C69.1852 80.604 68.7941 80.4459 68.3043 80.4459C67.8144 80.4459 67.4193 80.604 67.1191 80.92C66.8267 81.2282 66.6727 81.6825 66.6568 82.283C66.6489 82.4015 66.645 82.5516 66.645 82.7333C66.645 82.9151 66.6489 83.0652 66.6568 83.1837C66.6727 83.7842 66.8267 84.2425 67.1191 84.5585C67.4193 84.8667 67.8144 85.0207 68.3043 85.0207ZM74.0589 85.8148C73.9562 85.8148 73.8772 85.7911 73.8218 85.7437C73.7665 85.6884 73.7191 85.6133 73.6796 85.5185L71.9967 80.0193C71.9809 79.9798 71.973 79.9403 71.973 79.9007C71.973 79.8296 71.9967 79.7704 72.0441 79.723C72.0994 79.6756 72.1586 79.6519 72.2218 79.6519H72.7433C72.8302 79.6519 72.8974 79.6756 72.9448 79.723C72.9922 79.7704 73.0238 79.8138 73.0396 79.8533L74.3552 84.3215L75.7656 79.9007C75.7814 79.8454 75.813 79.7901 75.8604 79.7348C75.9157 79.6795 75.9947 79.6519 76.0974 79.6519H76.5004C76.6031 79.6519 76.6821 79.6795 76.7374 79.7348C76.7927 79.7901 76.8243 79.8454 76.8322 79.9007L78.2426 84.3215L79.5581 79.8533C79.566 79.8138 79.5937 79.7704 79.6411 79.723C79.6885 79.6756 79.7557 79.6519 79.8426 79.6519H80.3641C80.4352 79.6519 80.4944 79.6756 80.5418 79.723C80.5893 79.7704 80.613 79.8296 80.613 79.9007C80.613 79.9403 80.6051 79.9798 80.5893 80.0193L78.9063 85.5185C78.8826 85.6133 78.8391 85.6884 78.7759 85.7437C78.7206 85.7911 78.6377 85.8148 78.527 85.8148H78.0648C77.9621 85.8148 77.8752 85.7911 77.8041 85.7437C77.7409 85.6884 77.6974 85.6133 77.6737 85.5185L76.2989 81.2756L74.9241 85.5185C74.8925 85.6133 74.8451 85.6884 74.7818 85.7437C74.7186 85.7911 74.6317 85.8148 74.5211 85.8148H74.0589ZM84.2169 85.9333C83.4031 85.9333 82.7552 85.6844 82.2732 85.1867C81.7913 84.681 81.5266 83.9936 81.4792 83.1244C81.4713 83.0217 81.4673 82.8914 81.4673 82.7333C81.4673 82.5674 81.4713 82.4331 81.4792 82.3304C81.5108 81.7694 81.6411 81.2795 81.8703 80.8607C82.0994 80.4341 82.4115 80.1062 82.8066 79.877C83.2095 79.6479 83.6797 79.5333 84.2169 79.5333C84.8174 79.5333 85.3192 79.6598 85.7221 79.9126C86.133 80.1654 86.4451 80.5249 86.6584 80.9911C86.8718 81.4573 86.9784 82.0025 86.9784 82.6267V82.8282C86.9784 82.9151 86.9508 82.9822 86.8955 83.0296C86.8481 83.077 86.7848 83.1007 86.7058 83.1007H82.6051C82.6051 83.1086 82.6051 83.1244 82.6051 83.1482C82.6051 83.1719 82.6051 83.1916 82.6051 83.2074C82.6209 83.5314 82.692 83.8356 82.8184 84.12C82.9448 84.3965 83.1266 84.6217 83.3636 84.7956C83.6006 84.9694 83.8851 85.0563 84.2169 85.0563C84.5014 85.0563 84.7384 85.0128 84.9281 84.9259C85.1177 84.839 85.2718 84.7442 85.3903 84.6415C85.5088 84.5309 85.5878 84.4479 85.6273 84.3926C85.6984 84.2899 85.7537 84.2306 85.7932 84.2148C85.8327 84.1911 85.896 84.1793 85.9829 84.1793H86.5518C86.6308 84.1793 86.694 84.203 86.7414 84.2504C86.7967 84.2899 86.8204 84.3491 86.8125 84.4282C86.8046 84.5467 86.7414 84.6928 86.6229 84.8667C86.5043 85.0326 86.3345 85.1985 86.1132 85.3644C85.892 85.5304 85.6234 85.6686 85.3073 85.7793C84.9913 85.882 84.6278 85.9333 84.2169 85.9333ZM82.6051 82.283H85.8525V82.2474C85.8525 81.8919 85.7853 81.5758 85.651 81.2993C85.5246 81.0227 85.3389 80.8054 85.094 80.6474C84.849 80.4815 84.5567 80.3985 84.2169 80.3985C83.8772 80.3985 83.5848 80.4815 83.3399 80.6474C83.1029 80.8054 82.9211 81.0227 82.7947 81.2993C82.6683 81.5758 82.6051 81.8919 82.6051 82.2474V82.283ZM88.6681 85.8148C88.5891 85.8148 88.522 85.7911 88.4667 85.7437C88.4193 85.6884 88.3956 85.6212 88.3956 85.5422V79.9363C88.3956 79.8573 88.4193 79.7901 88.4667 79.7348C88.522 79.6795 88.5891 79.6519 88.6681 79.6519H89.2133C89.2923 79.6519 89.3595 79.6795 89.4148 79.7348C89.4701 79.7901 89.4978 79.8573 89.4978 79.9363V80.4578C89.6558 80.1891 89.8731 79.9877 90.1496 79.8533C90.4262 79.719 90.758 79.6519 91.1452 79.6519H91.6193C91.6983 79.6519 91.7615 79.6795 91.8089 79.7348C91.8563 79.7822 91.88 79.8454 91.88 79.9244V80.4104C91.88 80.4894 91.8563 80.5526 91.8089 80.6C91.7615 80.6474 91.6983 80.6711 91.6193 80.6711H90.9081C90.4815 80.6711 90.1457 80.7975 89.9007 81.0504C89.6558 81.2953 89.5333 81.6311 89.5333 82.0578V85.5422C89.5333 85.6212 89.5057 85.6884 89.4504 85.7437C89.3951 85.7911 89.3279 85.8148 89.2489 85.8148H88.6681ZM94.8097 85.8148C94.7465 85.8148 94.6912 85.7911 94.6438 85.7437C94.5964 85.6963 94.5727 85.641 94.5727 85.5778C94.5727 85.5383 94.5766 85.4948 94.5845 85.4474L97.5238 77.7793C97.5554 77.7003 97.5989 77.637 97.6542 77.5896C97.7095 77.5422 97.7924 77.5185 97.9031 77.5185H98.709C98.8117 77.5185 98.8907 77.5422 98.946 77.5896C99.0092 77.637 99.0566 77.7003 99.0882 77.7793L102.016 85.4474C102.031 85.4948 102.039 85.5383 102.039 85.5778C102.039 85.641 102.016 85.6963 101.968 85.7437C101.921 85.7911 101.866 85.8148 101.802 85.8148H101.198C101.103 85.8148 101.032 85.7911 100.985 85.7437C100.945 85.6963 100.917 85.6528 100.902 85.6133L100.25 83.9304H96.3623L95.7105 85.6133C95.7026 85.6528 95.6749 85.6963 95.6275 85.7437C95.5801 85.7911 95.509 85.8148 95.4142 85.8148H94.8097ZM96.706 82.9111H99.906L98.306 78.7037L96.706 82.9111ZM103.579 85.8148C103.492 85.8148 103.425 85.7911 103.378 85.7437C103.33 85.6884 103.307 85.6212 103.307 85.5422V77.803C103.307 77.7161 103.33 77.6489 103.378 77.6015C103.425 77.5462 103.492 77.5185 103.579 77.5185H106.59C107.174 77.5185 107.68 77.6133 108.107 77.803C108.541 77.9926 108.877 78.277 109.114 78.6563C109.351 79.0277 109.47 79.4938 109.47 80.0548C109.47 80.6158 109.351 81.082 109.114 81.4533C108.877 81.8247 108.541 82.1052 108.107 82.2948C107.68 82.4844 107.174 82.5793 106.59 82.5793H104.492V85.5422C104.492 85.6212 104.464 85.6884 104.409 85.7437C104.361 85.7911 104.294 85.8148 104.207 85.8148H103.579ZM104.48 81.5837H106.53C107.115 81.5837 107.553 81.4533 107.846 81.1926C108.138 80.9319 108.284 80.5526 108.284 80.0548C108.284 79.5649 108.142 79.1857 107.858 78.917C107.573 78.6484 107.131 78.5141 106.53 78.5141H104.48V81.5837ZM111.183 85.8148C111.096 85.8148 111.029 85.7911 110.982 85.7437C110.934 85.6884 110.911 85.6212 110.911 85.5422V77.7911C110.911 77.7121 110.934 77.6489 110.982 77.6015C111.029 77.5462 111.096 77.5185 111.183 77.5185H111.811C111.89 77.5185 111.954 77.5462 112.001 77.6015C112.056 77.6489 112.084 77.7121 112.084 77.7911V85.5422C112.084 85.6212 112.056 85.6884 112.001 85.7437C111.954 85.7911 111.89 85.8148 111.811 85.8148H111.183ZM27.9111 99.8148C27.8084 99.8148 27.7254 99.7872 27.6622 99.7319C27.6069 99.6765 27.5674 99.5975 27.5437 99.4948L26.0148 91.8859C26.0069 91.8543 26.003 91.8267 26.003 91.803C26.003 91.7793 26.003 91.7635 26.003 91.7556C26.003 91.6923 26.0267 91.637 26.0741 91.5896C26.1215 91.5422 26.1768 91.5185 26.24 91.5185H26.8563C27.0222 91.5185 27.117 91.5857 27.1407 91.72L28.3496 97.8356L29.6296 93.64C29.6533 93.5689 29.6928 93.5057 29.7481 93.4504C29.8114 93.3872 29.8983 93.3556 30.0089 93.3556H30.4474C30.5659 93.3556 30.6528 93.3872 30.7081 93.4504C30.7635 93.5057 30.799 93.5689 30.8148 93.64L32.1067 97.8356L33.3037 91.72C33.3274 91.5857 33.4262 91.5185 33.6 91.5185H34.2163C34.2795 91.5185 34.3348 91.5422 34.3822 91.5896C34.4296 91.637 34.4533 91.6923 34.4533 91.7556C34.4533 91.7635 34.4494 91.7793 34.4415 91.803C34.4415 91.8267 34.4415 91.8543 34.4415 91.8859L32.9126 99.4948C32.8889 99.5975 32.8454 99.6765 32.7822 99.7319C32.7269 99.7872 32.6479 99.8148 32.5452 99.8148H32.083C31.9723 99.8148 31.8854 99.7872 31.8222 99.7319C31.759 99.6765 31.7156 99.6054 31.6918 99.5185L30.2222 95.003L28.7644 99.5185C28.7328 99.6054 28.6854 99.6765 28.6222 99.7319C28.5669 99.7872 28.4839 99.8148 28.3733 99.8148H27.9111ZM35.983 99.8148C35.9039 99.8148 35.8368 99.7911 35.7815 99.7437C35.7341 99.6884 35.7104 99.6212 35.7104 99.5422V93.9363C35.7104 93.8573 35.7341 93.7901 35.7815 93.7348C35.8368 93.6795 35.9039 93.6519 35.983 93.6519H36.5281C36.6072 93.6519 36.6743 93.6795 36.7296 93.7348C36.7849 93.7901 36.8126 93.8573 36.8126 93.9363V94.4578C36.9706 94.1891 37.1879 93.9877 37.4644 93.8533C37.741 93.719 38.0728 93.6519 38.46 93.6519H38.9341C39.0131 93.6519 39.0763 93.6795 39.1237 93.7348C39.1711 93.7822 39.1948 93.8454 39.1948 93.9244V94.4104C39.1948 94.4894 39.1711 94.5526 39.1237 94.6C39.0763 94.6474 39.0131 94.6711 38.9341 94.6711H38.223C37.7963 94.6711 37.4605 94.7975 37.2156 95.0504C36.9706 95.2953 36.8481 95.6311 36.8481 96.0578V99.5422C36.8481 99.6212 36.8205 99.6884 36.7652 99.7437C36.7099 99.7911 36.6427 99.8148 36.5637 99.8148H35.983ZM40.4853 99.8148C40.4063 99.8148 40.3391 99.7911 40.2838 99.7437C40.2364 99.6884 40.2127 99.6212 40.2127 99.5422V93.9244C40.2127 93.8454 40.2364 93.7822 40.2838 93.7348C40.3391 93.6795 40.4063 93.6519 40.4853 93.6519H41.0542C41.1332 93.6519 41.1964 93.6795 41.2438 93.7348C41.2912 93.7822 41.3149 93.8454 41.3149 93.9244V99.5422C41.3149 99.6212 41.2912 99.6884 41.2438 99.7437C41.1964 99.7911 41.1332 99.8148 41.0542 99.8148H40.4853ZM40.3905 92.5022C40.3114 92.5022 40.2443 92.4785 40.189 92.4311C40.1416 92.3758 40.1179 92.3086 40.1179 92.2296V91.5896C40.1179 91.5106 40.1416 91.4474 40.189 91.4C40.2443 91.3447 40.3114 91.317 40.3905 91.317H41.1371C41.2161 91.317 41.2793 91.3447 41.3268 91.4C41.3821 91.4474 41.4097 91.5106 41.4097 91.5896V92.2296C41.4097 92.3086 41.3821 92.3758 41.3268 92.4311C41.2793 92.4785 41.2161 92.5022 41.1371 92.5022H40.3905ZM45.489 99.8148C45.0465 99.8148 44.687 99.7319 44.4105 99.5659C44.1339 99.3921 43.9324 99.1511 43.806 98.843C43.6796 98.5269 43.6164 98.1556 43.6164 97.7289V94.6H42.6919C42.6129 94.6 42.5458 94.5763 42.4905 94.5289C42.443 94.4736 42.4193 94.4064 42.4193 94.3274V93.9244C42.4193 93.8454 42.443 93.7822 42.4905 93.7348C42.5458 93.6795 42.6129 93.6519 42.6919 93.6519H43.6164V91.6726C43.6164 91.5936 43.6401 91.5304 43.6875 91.483C43.7428 91.4277 43.81 91.4 43.889 91.4H44.446C44.525 91.4 44.5882 91.4277 44.6356 91.483C44.691 91.5304 44.7186 91.5936 44.7186 91.6726V93.6519H46.1882C46.2672 93.6519 46.3305 93.6795 46.3779 93.7348C46.4332 93.7822 46.4608 93.8454 46.4608 93.9244V94.3274C46.4608 94.4064 46.4332 94.4736 46.3779 94.5289C46.3305 94.5763 46.2672 94.6 46.1882 94.6H44.7186V97.6459C44.7186 98.0173 44.7818 98.3096 44.9082 98.523C45.0347 98.7363 45.2598 98.843 45.5838 98.843H46.3068C46.3858 98.843 46.449 98.8706 46.4964 98.9259C46.5517 98.9733 46.5793 99.0365 46.5793 99.1156V99.5422C46.5793 99.6212 46.5517 99.6884 46.4964 99.7437C46.449 99.7911 46.3858 99.8148 46.3068 99.8148H45.489ZM50.1186 99.8148C49.6761 99.8148 49.3166 99.7319 49.0401 99.5659C48.7635 99.3921 48.5621 99.1511 48.4356 98.843C48.3092 98.5269 48.246 98.1556 48.246 97.7289V94.6H47.3216C47.2426 94.6 47.1754 94.5763 47.1201 94.5289C47.0727 94.4736 47.049 94.4064 47.049 94.3274V93.9244C47.049 93.8454 47.0727 93.7822 47.1201 93.7348C47.1754 93.6795 47.2426 93.6519 47.3216 93.6519H48.246V91.6726C48.246 91.5936 48.2697 91.5304 48.3171 91.483C48.3724 91.4277 48.4396 91.4 48.5186 91.4H49.0756C49.1547 91.4 49.2179 91.4277 49.2653 91.483C49.3206 91.5304 49.3482 91.5936 49.3482 91.6726V93.6519H50.8179C50.8969 93.6519 50.9601 93.6795 51.0075 93.7348C51.0628 93.7822 51.0905 93.8454 51.0905 93.9244V94.3274C51.0905 94.4064 51.0628 94.4736 51.0075 94.5289C50.9601 94.5763 50.8969 94.6 50.8179 94.6H49.3482V97.6459C49.3482 98.0173 49.4114 98.3096 49.5379 98.523C49.6643 98.7363 49.8895 98.843 50.2134 98.843H50.9364C51.0154 98.843 51.0786 98.8706 51.126 98.9259C51.1813 98.9733 51.209 99.0365 51.209 99.1156V99.5422C51.209 99.6212 51.1813 99.6884 51.126 99.7437C51.0786 99.7911 51.0154 99.8148 50.9364 99.8148H50.1186ZM54.7956 99.9333C53.9818 99.9333 53.3339 99.6844 52.8519 99.1867C52.37 98.681 52.1053 97.9936 52.0579 97.1244C52.05 97.0217 52.046 96.8914 52.046 96.7333C52.046 96.5674 52.05 96.4331 52.0579 96.3304C52.0895 95.7694 52.2198 95.2795 52.449 94.8607C52.6781 94.4341 52.9902 94.1062 53.3853 93.877C53.7882 93.6479 54.2584 93.5333 54.7956 93.5333C55.3961 93.5333 55.8979 93.6598 56.3008 93.9126C56.7117 94.1654 57.0238 94.5249 57.2371 94.9911C57.4505 95.4573 57.5571 96.0025 57.5571 96.6267V96.8282C57.5571 96.9151 57.5295 96.9822 57.4742 97.0296C57.4268 97.077 57.3635 97.1007 57.2845 97.1007H53.1838C53.1838 97.1086 53.1838 97.1244 53.1838 97.1482C53.1838 97.1719 53.1838 97.1916 53.1838 97.2074C53.1996 97.5314 53.2707 97.8356 53.3971 98.12C53.5235 98.3965 53.7053 98.6217 53.9423 98.7956C54.1793 98.9694 54.4638 99.0563 54.7956 99.0563C55.0801 99.0563 55.3171 99.0128 55.5068 98.9259C55.6964 98.839 55.8505 98.7442 55.969 98.6415C56.0875 98.5309 56.1665 98.4479 56.206 98.3926C56.2771 98.2899 56.3324 98.2306 56.3719 98.2148C56.4114 98.1911 56.4747 98.1793 56.5616 98.1793H57.1305C57.2095 98.1793 57.2727 98.203 57.3201 98.2504C57.3754 98.2899 57.3991 98.3491 57.3912 98.4282C57.3833 98.5467 57.3201 98.6928 57.2016 98.8667C57.0831 99.0326 56.9132 99.1985 56.6919 99.3644C56.4707 99.5304 56.2021 99.6686 55.886 99.7793C55.57 99.882 55.2065 99.9333 54.7956 99.9333ZM53.1838 96.283H56.4312V96.2474C56.4312 95.8919 56.364 95.5758 56.2297 95.2993C56.1033 95.0227 55.9176 94.8054 55.6727 94.6474C55.4277 94.4815 55.1354 94.3985 54.7956 94.3985C54.4559 94.3985 54.1635 94.4815 53.9186 94.6474C53.6816 94.8054 53.4998 95.0227 53.3734 95.2993C53.247 95.5758 53.1838 95.8919 53.1838 96.2474V96.283ZM59.2468 99.8148C59.1678 99.8148 59.1007 99.7911 59.0454 99.7437C58.998 99.6884 58.9743 99.6212 58.9743 99.5422V93.9244C58.9743 93.8454 58.998 93.7822 59.0454 93.7348C59.1007 93.6795 59.1678 93.6519 59.2468 93.6519H59.8039C59.8829 93.6519 59.9461 93.6795 59.9935 93.7348C60.0488 93.7822 60.0765 93.8454 60.0765 93.9244V94.4459C60.2819 94.1773 60.5387 93.96 60.8468 93.7941C61.1629 93.6203 61.5659 93.5333 62.0557 93.5333C62.5693 93.5333 63.0039 93.6479 63.3594 93.877C63.7229 94.0983 63.9955 94.4104 64.1772 94.8133C64.3589 95.2084 64.4498 95.6706 64.4498 96.2V99.5422C64.4498 99.6212 64.4261 99.6884 64.3787 99.7437C64.3313 99.7911 64.2681 99.8148 64.1891 99.8148H63.5965C63.5175 99.8148 63.4503 99.7911 63.395 99.7437C63.3476 99.6884 63.3239 99.6212 63.3239 99.5422V96.2593C63.3239 95.7062 63.1896 95.2756 62.9209 94.9674C62.6523 94.6514 62.2572 94.4933 61.7357 94.4933C61.2459 94.4933 60.8508 94.6514 60.5506 94.9674C60.2582 95.2756 60.112 95.7062 60.112 96.2593V99.5422C60.112 99.6212 60.0844 99.6884 60.0291 99.7437C59.9817 99.7911 59.9185 99.8148 59.8394 99.8148H59.2468ZM69.3394 99.8148C69.2604 99.8148 69.1933 99.7911 69.138 99.7437C69.0906 99.6884 69.0668 99.6212 69.0668 99.5422V93.9244C69.0668 93.8454 69.0906 93.7822 69.138 93.7348C69.1933 93.6795 69.2604 93.6519 69.3394 93.6519H69.9083C69.9873 93.6519 70.0506 93.6795 70.098 93.7348C70.1454 93.7822 70.1691 93.8454 70.1691 93.9244V99.5422C70.1691 99.6212 70.1454 99.6884 70.098 99.7437C70.0506 99.7911 69.9873 99.8148 69.9083 99.8148H69.3394ZM69.2446 92.5022C69.1656 92.5022 69.0985 92.4785 69.0431 92.4311C68.9957 92.3758 68.972 92.3086 68.972 92.2296V91.5896C68.972 91.5106 68.9957 91.4474 69.0431 91.4C69.0985 91.3447 69.1656 91.317 69.2446 91.317H69.9913C70.0703 91.317 70.1335 91.3447 70.1809 91.4C70.2362 91.4474 70.2639 91.5106 70.2639 91.5896V92.2296C70.2639 92.3086 70.2362 92.3758 70.1809 92.4311C70.1335 92.4785 70.0703 92.5022 69.9913 92.5022H69.2446ZM72.3256 99.8148C72.2465 99.8148 72.1794 99.7911 72.1241 99.7437C72.0767 99.6884 72.053 99.6212 72.053 99.5422V93.9244C72.053 93.8454 72.0767 93.7822 72.1241 93.7348C72.1794 93.6795 72.2465 93.6519 72.3256 93.6519H72.8826C72.9616 93.6519 73.0248 93.6795 73.0722 93.7348C73.1275 93.7822 73.1552 93.8454 73.1552 93.9244V94.4459C73.3606 94.1773 73.6174 93.96 73.9256 93.7941C74.2416 93.6203 74.6446 93.5333 75.1344 93.5333C75.648 93.5333 76.0826 93.6479 76.4381 93.877C76.8016 94.0983 77.0742 94.4104 77.2559 94.8133C77.4377 95.2084 77.5285 95.6706 77.5285 96.2V99.5422C77.5285 99.6212 77.5048 99.6884 77.4574 99.7437C77.41 99.7911 77.3468 99.8148 77.2678 99.8148H76.6752C76.5962 99.8148 76.529 99.7911 76.4737 99.7437C76.4263 99.6884 76.4026 99.6212 76.4026 99.5422V96.2593C76.4026 95.7062 76.2683 95.2756 75.9996 94.9674C75.731 94.6514 75.3359 94.4933 74.8144 94.4933C74.3246 94.4933 73.9295 94.6514 73.6293 94.9674C73.3369 95.2756 73.1907 95.7062 73.1907 96.2593V99.5422C73.1907 99.6212 73.1631 99.6884 73.1078 99.7437C73.0604 99.7911 72.9972 99.8148 72.9181 99.8148H72.3256ZM82.5722 99.8148C82.4853 99.8148 82.4181 99.7911 82.3707 99.7437C82.3233 99.6884 82.2996 99.6212 82.2996 99.5422V91.803C82.2996 91.7161 82.3233 91.6489 82.3707 91.6015C82.4181 91.5462 82.4853 91.5185 82.5722 91.5185H85.5826C86.1673 91.5185 86.673 91.6133 87.0996 91.803C87.5342 91.9926 87.87 92.277 88.107 92.6563C88.3441 93.0277 88.4626 93.4938 88.4626 94.0548C88.4626 94.6158 88.3441 95.082 88.107 95.4533C87.87 95.8247 87.5342 96.1052 87.0996 96.2948C86.673 96.4844 86.1673 96.5793 85.5826 96.5793H83.4848V99.5422C83.4848 99.6212 83.4572 99.6884 83.4019 99.7437C83.3544 99.7911 83.2873 99.8148 83.2004 99.8148H82.5722ZM83.473 95.5837H85.5233C86.108 95.5837 86.5465 95.4533 86.8389 95.1926C87.1312 94.9319 87.2774 94.5526 87.2774 94.0548C87.2774 93.5649 87.1352 93.1857 86.8507 92.917C86.5663 92.6484 86.1238 92.5141 85.5233 92.5141H83.473V95.5837ZM90.8282 102.067C90.765 102.067 90.7097 102.043 90.6623 101.996C90.6149 101.948 90.5912 101.893 90.5912 101.83C90.5912 101.798 90.5952 101.766 90.6031 101.735C90.611 101.703 90.6268 101.664 90.6505 101.616L91.5631 99.4474L89.2994 94.1022C89.2598 94.0074 89.2401 93.9403 89.2401 93.9007C89.2401 93.8296 89.2638 93.7704 89.3112 93.723C89.3586 93.6756 89.4179 93.6519 89.489 93.6519H90.0697C90.1487 93.6519 90.2119 93.6716 90.2594 93.7111C90.3068 93.7506 90.3384 93.798 90.3542 93.8533L92.1556 98.1674L94.0045 93.8533C94.0282 93.798 94.0598 93.7506 94.0994 93.7111C94.1468 93.6716 94.2139 93.6519 94.3008 93.6519H94.8579C94.929 93.6519 94.9882 93.6756 95.0356 93.723C95.0831 93.7704 95.1068 93.8257 95.1068 93.8889C95.1068 93.9284 95.087 93.9995 95.0475 94.1022L91.6816 101.865C91.6579 101.92 91.6223 101.968 91.5749 102.007C91.5354 102.047 91.4722 102.067 91.3853 102.067H90.8282ZM98.6834 99.8148C98.241 99.8148 97.8814 99.7319 97.6049 99.5659C97.3284 99.3921 97.1269 99.1511 97.0005 98.843C96.874 98.5269 96.8108 98.1556 96.8108 97.7289V94.6H95.8864C95.8074 94.6 95.7402 94.5763 95.6849 94.5289C95.6375 94.4736 95.6138 94.4064 95.6138 94.3274V93.9244C95.6138 93.8454 95.6375 93.7822 95.6849 93.7348C95.7402 93.6795 95.8074 93.6519 95.8864 93.6519H96.8108V91.6726C96.8108 91.5936 96.8345 91.5304 96.8819 91.483C96.9372 91.4277 97.0044 91.4 97.0834 91.4H97.6405C97.7195 91.4 97.7827 91.4277 97.8301 91.483C97.8854 91.5304 97.9131 91.5936 97.9131 91.6726V93.6519H99.3827C99.4617 93.6519 99.5249 93.6795 99.5723 93.7348C99.6276 93.7822 99.6553 93.8454 99.6553 93.9244V94.3274C99.6553 94.4064 99.6276 94.4736 99.5723 94.5289C99.5249 94.5763 99.4617 94.6 99.3827 94.6H97.9131V97.6459C97.9131 98.0173 97.9763 98.3096 98.1027 98.523C98.2291 98.7363 98.4543 98.843 98.7782 98.843H99.5012C99.5802 98.843 99.6434 98.8706 99.6908 98.9259C99.7461 98.9733 99.7738 99.0365 99.7738 99.1156V99.5422C99.7738 99.6212 99.7461 99.6884 99.6908 99.7437C99.6434 99.7911 99.5802 99.8148 99.5012 99.8148H98.6834ZM101.192 99.8148C101.113 99.8148 101.045 99.7911 100.99 99.7437C100.943 99.6884 100.919 99.6212 100.919 99.5422V91.6726C100.919 91.5936 100.943 91.5304 100.99 91.483C101.045 91.4277 101.113 91.4 101.192 91.4H101.784C101.871 91.4 101.938 91.4277 101.986 91.483C102.033 91.5304 102.057 91.5936 102.057 91.6726V94.4341C102.27 94.1654 102.531 93.9482 102.839 93.7822C103.147 93.6163 103.538 93.5333 104.012 93.5333C104.526 93.5333 104.96 93.6479 105.316 93.877C105.679 94.0983 105.952 94.4104 106.134 94.8133C106.323 95.2084 106.418 95.6706 106.418 96.2V99.5422C106.418 99.6212 106.395 99.6884 106.347 99.7437C106.3 99.7911 106.233 99.8148 106.146 99.8148H105.553C105.474 99.8148 105.407 99.7911 105.352 99.7437C105.304 99.6884 105.28 99.6212 105.28 99.5422V96.2593C105.28 95.7062 105.146 95.2756 104.877 94.9674C104.609 94.6514 104.214 94.4933 103.692 94.4933C103.202 94.4933 102.807 94.6514 102.507 94.9674C102.207 95.2756 102.057 95.7062 102.057 96.2593V99.5422C102.057 99.6212 102.033 99.6884 101.986 99.7437C101.938 99.7911 101.871 99.8148 101.784 99.8148H101.192ZM110.654 99.9333C110.053 99.9333 109.552 99.8188 109.149 99.5896C108.746 99.3605 108.437 99.0444 108.224 98.6415C108.011 98.2306 107.892 97.7644 107.869 97.243C107.861 97.1086 107.857 96.9388 107.857 96.7333C107.857 96.52 107.861 96.3501 107.869 96.2237C107.892 95.6943 108.011 95.2282 108.224 94.8252C108.445 94.4222 108.757 94.1062 109.16 93.877C109.563 93.6479 110.061 93.5333 110.654 93.5333C111.246 93.5333 111.744 93.6479 112.147 93.877C112.55 94.1062 112.858 94.4222 113.072 94.8252C113.293 95.2282 113.415 95.6943 113.439 96.2237C113.447 96.3501 113.451 96.52 113.451 96.7333C113.451 96.9388 113.447 97.1086 113.439 97.243C113.415 97.7644 113.297 98.2306 113.083 98.6415C112.87 99.0444 112.562 99.3605 112.159 99.5896C111.756 99.8188 111.254 99.9333 110.654 99.9333ZM110.654 99.0207C111.144 99.0207 111.535 98.8667 111.827 98.5585C112.119 98.2425 112.277 97.7842 112.301 97.1837C112.309 97.0652 112.313 96.9151 112.313 96.7333C112.313 96.5516 112.309 96.4015 112.301 96.283C112.277 95.6825 112.119 95.2282 111.827 94.92C111.535 94.604 111.144 94.4459 110.654 94.4459C110.164 94.4459 109.769 94.604 109.469 94.92C109.176 95.2282 109.022 95.6825 109.006 96.283C108.998 96.4015 108.995 96.5516 108.995 96.7333C108.995 96.9151 108.998 97.0652 109.006 97.1837C109.022 97.7842 109.176 98.2425 109.469 98.5585C109.769 98.8667 110.164 99.0207 110.654 99.0207ZM115.207 99.8148C115.128 99.8148 115.061 99.7911 115.006 99.7437C114.959 99.6884 114.935 99.6212 114.935 99.5422V93.9244C114.935 93.8454 114.959 93.7822 115.006 93.7348C115.061 93.6795 115.128 93.6519 115.207 93.6519H115.765C115.844 93.6519 115.907 93.6795 115.954 93.7348C116.009 93.7822 116.037 93.8454 116.037 93.9244V94.4459C116.243 94.1773 116.499 93.96 116.807 93.7941C117.124 93.6203 117.527 93.5333 118.016 93.5333C118.53 93.5333 118.965 93.6479 119.32 93.877C119.684 94.0983 119.956 94.4104 120.138 94.8133C120.32 95.2084 120.41 95.6706 120.41 96.2V99.5422C120.41 99.6212 120.387 99.6884 120.339 99.7437C120.292 99.7911 120.229 99.8148 120.15 99.8148H119.557C119.478 99.8148 119.411 99.7911 119.356 99.7437C119.308 99.6884 119.285 99.6212 119.285 99.5422V96.2593C119.285 95.7062 119.15 95.2756 118.882 94.9674C118.613 94.6514 118.218 94.4933 117.696 94.4933C117.207 94.4933 116.811 94.6514 116.511 94.9674C116.219 95.2756 116.073 95.7062 116.073 96.2593V99.5422C116.073 99.6212 116.045 99.6884 115.99 99.7437C115.942 99.7911 115.879 99.8148 115.8 99.8148H115.207Z" fill="#F2F2F2"/>
<path d="M34.1667 59.9537C32.8272 59.9537 31.6713 59.8025 30.6991 59.5C29.7485 59.1759 28.9707 58.787 28.3657 58.3333C27.7824 57.8796 27.3395 57.4259 27.037 56.9722C26.7562 56.4969 26.6049 56.0972 26.5833 55.7732C26.5617 55.5355 26.6373 55.3411 26.8102 55.1898C26.983 55.0386 27.1559 54.963 27.3287 54.963H30.4722C30.537 54.963 30.6018 54.9738 30.6667 54.9954C30.7315 55.017 30.7963 55.071 30.8611 55.1574C31.142 55.3519 31.4336 55.5787 31.7361 55.838C32.0386 56.0756 32.3843 56.2809 32.7731 56.4537C33.1836 56.6266 33.6914 56.713 34.2963 56.713C35.0093 56.713 35.6142 56.5725 36.1111 56.2917C36.608 55.9892 36.8565 55.5679 36.8565 55.0278C36.8565 54.6389 36.7376 54.3148 36.5 54.0556C36.2839 53.7963 35.8626 53.5587 35.2361 53.3426C34.6096 53.1266 33.6805 52.8889 32.4491 52.6296C31.2824 52.3704 30.2886 52.0247 29.4676 51.5926C28.6466 51.1605 28.0309 50.6204 27.6204 49.9722C27.2099 49.3025 27.0046 48.5031 27.0046 47.5741C27.0046 46.7315 27.2639 45.9213 27.7824 45.1435C28.3225 44.3658 29.1111 43.7284 30.1481 43.2315C31.1852 42.713 32.4815 42.4537 34.037 42.4537C35.2253 42.4537 36.2623 42.6049 37.1481 42.9074C38.0555 43.1883 38.8117 43.5556 39.4167 44.0093C40.0216 44.4414 40.4753 44.8951 40.7778 45.3704C41.1018 45.8241 41.2747 46.2238 41.2963 46.5695C41.3179 46.7855 41.2531 46.9691 41.1018 47.1204C40.9506 47.2716 40.7778 47.3472 40.5833 47.3472H37.6991C37.591 47.3472 37.4938 47.3364 37.4074 47.3148C37.321 47.2716 37.2454 47.2176 37.1806 47.1528C36.9213 46.9799 36.6512 46.7855 36.3704 46.5695C36.1111 46.3318 35.7978 46.1266 35.4305 45.9537C35.0633 45.7809 34.588 45.6945 34.0046 45.6945C33.2917 45.6945 32.7407 45.8565 32.3518 46.1806C31.9846 46.483 31.8009 46.8719 31.8009 47.3472C31.8009 47.6497 31.8981 47.9306 32.0926 48.1898C32.287 48.4491 32.6867 48.6867 33.2917 48.9028C33.8966 49.1188 34.8148 49.3457 36.0463 49.5833C37.5154 49.8426 38.6821 50.2315 39.5463 50.75C40.4105 51.2685 41.0262 51.8735 41.3935 52.5648C41.7824 53.2346 41.9768 53.9583 41.9768 54.7361C41.9768 55.7516 41.6744 56.659 41.0694 57.4583C40.4645 58.2361 39.5787 58.8519 38.412 59.3056C37.267 59.7377 35.8518 59.9537 34.1667 59.9537ZM52.6062 59.9537C50.1217 59.9537 48.1448 59.2624 46.6757 57.8796C45.2281 56.4969 44.4612 54.4877 44.3747 51.8519C44.3747 51.679 44.3747 51.4522 44.3747 51.1713C44.3747 50.8688 44.3747 50.6312 44.3747 50.4583C44.4612 48.7948 44.8392 47.3688 45.509 46.1806C46.1788 44.9707 47.1186 44.0525 48.3284 43.4259C49.5383 42.7778 50.9534 42.4537 52.5738 42.4537C54.3886 42.4537 55.901 42.8318 57.1109 43.588C58.3423 44.3225 59.2605 45.338 59.8655 46.6343C60.492 47.909 60.8053 49.3781 60.8053 51.0417V51.787C60.8053 52.0031 60.7189 52.1867 60.546 52.338C60.3948 52.4892 60.2112 52.5648 59.9951 52.5648H49.3979C49.3979 52.5864 49.3979 52.6296 49.3979 52.6945C49.3979 52.7377 49.3979 52.7809 49.3979 52.8241C49.4195 53.5154 49.5491 54.1528 49.7868 54.7361C50.046 55.2978 50.4025 55.7516 50.8562 56.0972C51.3315 56.4429 51.8933 56.6157 52.5414 56.6157C53.0815 56.6157 53.5244 56.5401 53.8701 56.3889C54.2158 56.2377 54.4967 56.054 54.7127 55.838C54.9504 55.6219 55.1232 55.4383 55.2312 55.287C55.4257 55.071 55.5769 54.9414 55.6849 54.8982C55.8146 54.8333 56.009 54.8009 56.2683 54.8009H59.6386C59.8547 54.8009 60.0275 54.8657 60.1571 54.9954C60.3084 55.1034 60.3732 55.2654 60.3516 55.4815C60.33 55.8272 60.1463 56.2593 59.8007 56.7778C59.4766 57.2747 58.9905 57.7716 58.3423 58.2685C57.6942 58.7438 56.884 59.1435 55.9118 59.4676C54.9612 59.7917 53.8593 59.9537 52.6062 59.9537ZM49.3979 49.6157H55.7497V49.5509C55.7497 48.7732 55.6201 48.1034 55.3609 47.5417C55.1232 46.9583 54.7667 46.5046 54.2914 46.1806C53.8161 45.8565 53.2436 45.6945 52.5738 45.6945C51.9041 45.6945 51.3315 45.8565 50.8562 46.1806C50.3809 46.5046 50.0136 46.9583 49.7544 47.5417C49.5167 48.1034 49.3979 48.7732 49.3979 49.5509V49.6157ZM64.8225 59.6296C64.6065 59.6296 64.4229 59.554 64.2716 59.4028C64.1204 59.2516 64.0448 59.0571 64.0448 58.8195V43.588C64.0448 43.3719 64.1204 43.1883 64.2716 43.037C64.4229 42.8642 64.6065 42.7778 64.8225 42.7778H67.9985C68.2145 42.7778 68.3982 42.8642 68.5494 43.037C68.7222 43.1883 68.8087 43.3719 68.8087 43.588V44.8843C69.3488 44.2145 70.0077 43.696 70.7855 43.3287C71.5849 42.9614 72.5031 42.7778 73.5401 42.7778H74.9337C75.1497 42.7778 75.3333 42.8534 75.4846 43.0046C75.6358 43.1559 75.7114 43.3503 75.7114 43.588V46.375C75.7114 46.6127 75.6358 46.8071 75.4846 46.9583C75.3333 47.1096 75.1497 47.1852 74.9337 47.1852H72.0818C71.1312 47.1852 70.3858 47.4553 69.8457 47.9954C69.3056 48.5139 69.0355 49.2593 69.0355 50.2315V58.8195C69.0355 59.0571 68.9599 59.2516 68.8087 59.4028C68.6574 59.554 68.463 59.6296 68.2253 59.6296H64.8225ZM84.091 59.6296C83.767 59.6296 83.5185 59.554 83.3457 59.4028C83.1944 59.2299 83.0648 59.0355 82.9568 58.8195L76.8642 43.7824C76.821 43.696 76.7994 43.5988 76.7994 43.4907C76.7994 43.2963 76.8642 43.1343 76.9938 43.0046C77.145 42.8534 77.3179 42.7778 77.5123 42.7778H80.6558C80.9367 42.7778 81.142 42.8534 81.2716 43.0046C81.4228 43.1559 81.52 43.2963 81.5633 43.4259L85.5494 54.1204L89.5355 43.4259C89.6003 43.2963 89.6975 43.1559 89.8271 43.0046C89.9784 42.8534 90.1836 42.7778 90.4429 42.7778H93.5864C93.7808 42.7778 93.9429 42.8534 94.0725 43.0046C94.2237 43.1343 94.2994 43.2963 94.2994 43.4907C94.2994 43.5988 94.2886 43.696 94.267 43.7824L88.142 58.8195C88.0555 59.0355 87.9259 59.2299 87.7531 59.4028C87.5802 59.554 87.3318 59.6296 87.0077 59.6296H84.091ZM103.939 59.9537C101.454 59.9537 99.4776 59.2624 98.0085 57.8796C96.561 56.4969 95.794 54.4877 95.7076 51.8519C95.7076 51.679 95.7076 51.4522 95.7076 51.1713C95.7076 50.8688 95.7076 50.6312 95.7076 50.4583C95.794 48.7948 96.1721 47.3688 96.8418 46.1806C97.5116 44.9707 98.4514 44.0525 99.6613 43.4259C100.871 42.7778 102.286 42.4537 103.907 42.4537C105.721 42.4537 107.234 42.8318 108.444 43.588C109.675 44.3225 110.593 45.338 111.198 46.6343C111.825 47.909 112.138 49.3781 112.138 51.0417V51.787C112.138 52.0031 112.052 52.1867 111.879 52.338C111.728 52.4892 111.544 52.5648 111.328 52.5648H100.731C100.731 52.5864 100.731 52.6296 100.731 52.6945C100.731 52.7377 100.731 52.7809 100.731 52.8241C100.752 53.5154 100.882 54.1528 101.12 54.7361C101.379 55.2978 101.735 55.7516 102.189 56.0972C102.664 56.4429 103.226 56.6157 103.874 56.6157C104.414 56.6157 104.857 56.5401 105.203 56.3889C105.549 56.2377 105.829 56.054 106.046 55.838C106.283 55.6219 106.456 55.4383 106.564 55.287C106.758 55.071 106.91 54.9414 107.018 54.8982C107.147 54.8333 107.342 54.8009 107.601 54.8009H110.971C111.188 54.8009 111.36 54.8657 111.49 54.9954C111.641 55.1034 111.706 55.2654 111.684 55.4815C111.663 55.8272 111.479 56.2593 111.133 56.7778C110.809 57.2747 110.323 57.7716 109.675 58.2685C109.027 58.7438 108.217 59.1435 107.245 59.4676C106.294 59.7917 105.192 59.9537 103.939 59.9537ZM100.731 49.6157H107.083V49.5509C107.083 48.7732 106.953 48.1034 106.694 47.5417C106.456 46.9583 106.1 46.5046 105.624 46.1806C105.149 45.8565 104.576 45.6945 103.907 45.6945C103.237 45.6945 102.664 45.8565 102.189 46.1806C101.714 46.5046 101.346 46.9583 101.087 47.5417C100.85 48.1034 100.731 48.7732 100.731 49.5509V49.6157ZM116.155 59.6296C115.939 59.6296 115.756 59.554 115.604 59.4028C115.453 59.2516 115.378 59.0571 115.378 58.8195V43.588C115.378 43.3719 115.453 43.1883 115.604 43.037C115.756 42.8642 115.939 42.7778 116.155 42.7778H119.331C119.547 42.7778 119.731 42.8642 119.882 43.037C120.055 43.1883 120.141 43.3719 120.141 43.588V44.8843C120.682 44.2145 121.341 43.696 122.118 43.3287C122.918 42.9614 123.836 42.7778 124.873 42.7778H126.266C126.483 42.7778 126.666 42.8534 126.817 43.0046C126.969 43.1559 127.044 43.3503 127.044 43.588V46.375C127.044 46.6127 126.969 46.8071 126.817 46.9583C126.666 47.1096 126.483 47.1852 126.266 47.1852H123.415C122.464 47.1852 121.719 47.4553 121.179 47.9954C120.638 48.5139 120.368 49.2593 120.368 50.2315V58.8195C120.368 59.0571 120.293 59.2516 120.141 59.4028C119.99 59.554 119.796 59.6296 119.558 59.6296H116.155Z" fill="#F2F2F2"/>
</g>
<defs>
<clipPath id="clip0_26_2">
<rect width="350" height="200" fill="white"/>
</clipPath>
</defs>
</svg>
