<svg version="1.1" xmlns="http://www.w3.org/2000/svg" xmlns:xlink="http://www.w3.org/1999/xlink" width="515.56751" height="119" viewBox="0,0,515.56751,119"><g transform="translate(-58.96624,-117.35)"><g data-paper-data="{&quot;isPaintingLayer&quot;:true}" fill-rule="nonzero" stroke-linejoin="miter" stroke-miterlimit="10" stroke-dasharray="" stroke-dashoffset="0" style="mix-blend-mode: normal"><path d="M117.06624,202.45c0,-2 2.2,-2.7 5,-2.7c2.8,0 5,0.6 5,2.7c0,2.1 -1.6,4.5 -5,4.5c-3.4,0 -5,-2.5 -5,-4.5z" fill="#ff5600" stroke="#ff5600" stroke-width="1" stroke-linecap="butt"/><path d="M136.36624,208.05c0,3.9 -3.3,7.2 -7.2,7.2c-3.9,0 -7.2,-3.1 -7.2,-7.2c0,-0.3 0,-0.3 0,-0.3c0,-0.3 0,-0.4 0,-0.4c0,0 0,0.1 0,0.4c0,0 0,0 0,0.3c0,3.9 -3.3,7.2 -7.2,7.2c-3.9,0 -7.2,-3.1 -7.2,-7.2" fill="none" stroke="#ff5600" stroke-width="3" stroke-linecap="round"/><path d="M109.26624,189.25c0,-2.7 2.2,-4.9 4.9,-4.9c2.7,0 4.9,2.2 4.9,4.9c0,2.7 -2.2,4.9 -4.9,4.9c-2.7,0 -4.9,-2.2 -4.9,-4.9z" fill="#ff5600" stroke="none" stroke-width="1" stroke-linecap="butt"/><path d="M125.16624,189.25c0,-2.7 2.2,-4.9 4.9,-4.9c2.7,0 4.9,2.2 4.9,4.9c0,2.7 -2.2,4.9 -4.9,4.9c-2.7,0 -4.9,-2.2 -4.9,-4.9z" fill="#ff5600" stroke="none" stroke-width="1" stroke-linecap="butt"/><path d="M65.46624,229.85v4v-110h4.4l52,46.7h0.4l52,-46.7h4.4v110v-4" fill="none" stroke="#ff5600" stroke-width="13" stroke-linecap="round"/><g fill="#ff5600" stroke="none" stroke-width="1" stroke-linecap="butt"><path d="M257.63376,195.85h0.1v5.8c0,0.8 -0.3,1.5 -0.9,2c-0.6,0.5 -1.2,0.8 -1.9,0.8h-45.2c0.5,7.6 2.6,13.1 6.4,16.4c3.8,3.2 9.7,4.8 17.7,4.8c4.8,0 9.2,-1.4 13.2,-4.2c1.4,-1.1 2.6,-1 3.7,0.3c0.6,0.6 1.7,1.8 3.3,3.6c0.5,0.6 0.7,1.3 0.7,2.2c-0.1,0.8 -0.4,1.5 -1.1,2c-5.9,4.4 -12.5,6.5 -19.8,6.5c-10.6,0 -18.7,-2.4 -24.4,-7.3c-6.8,-5.8 -10.3,-15.7 -10.3,-29.4v-0.1c0,-13.5 2.8,-23.1 8.3,-28.8c4.9,-5.2 11.8,-7.7 20.9,-7.7c9.1,0 16.1,2.6 21,7.7c5.2,5.1 7.9,13.6 8.3,25.4zM209.63376,195.85h37.8c-0.3,-8.8 -2.1,-15 -5.5,-18.4c-2.8,-3.1 -7.2,-4.6 -13.4,-4.6c-6.1,0 -10.7,1.5 -13.5,4.6c-3.5,3.5 -5.2,9.6 -5.4,18.4z"/><path d="M332.43376,197.55c0,0.5 -0.1,1.1 -0.1,1.8c0.1,0.7 0.1,1.3 0.1,1.8c0,6.4 -0.7,12 -2.1,16.7c-1.4,4.7 -3.6,8.4 -6.7,11.3c-4.8,4.5 -11.4,6.8 -20.1,7h-0.3c-8.6,-0.2 -15.3,-2.5 -19.9,-7c-5.8,-5.5 -8.8,-14.8 -8.8,-28c0,-0.5 0,-1.1 0,-1.8c0,-0.7 0,-1.3 0,-1.8c0,-13.2 2.9,-22.5 8.8,-28c4.7,-4.5 11.3,-6.8 19.9,-7h0.3c8.6,0.2 15.3,2.5 20.1,7c5.8,5.5 8.8,14.8 8.8,28zM322.03376,201.05c0,-0.6 0,-1.1 0,-1.6v-0.3c0,-0.7 0,-1.2 0,-1.6c0,-5.1 -0.4,-9.2 -1.1,-12.5c-0.7,-3.3 -2.2,-5.9 -4.4,-8c-2.8,-2.6 -7.1,-4 -13.1,-4.2c-5.9,0.2 -10.3,1.6 -13.1,4.2c-2.1,2.1 -3.5,4.8 -4.2,8c-0.7,3.3 -1.1,7.4 -1.1,12.5c0,0.5 0,1 0,1.6v0.3c0,0.6 0,1.1 0,1.6c0,5.1 0.4,9.2 1.1,12.5c0.7,3.3 2.2,5.9 4.2,8c2.8,2.6 7.1,3.9 13.1,4c5.9,-0.1 10.3,-1.4 13.1,-4c2.2,-2.1 3.6,-4.8 4.4,-8c0.8,-3.2 1.1,-7.4 1.1,-12.5z"/><path d="M445.83376,165.45c0.6,0.8 0.7,1.6 0.4,2.5c-4.6,13.6 -11.8,35.1 -21.7,64.5c-0.4,1.3 -1.3,1.9 -2.7,1.9h-6.8c-1.3,0 -2.2,-0.6 -2.7,-1.9l-16.5,-49.4l-16.5,49.4c-0.4,1.3 -1.3,1.9 -2.7,1.9h-6.8c-1.3,0 -2.2,-0.6 -2.7,-1.9c-1.1,-3.5 -4.7,-14.2 -10.7,-32.1c-6,-17.9 -9.7,-28.7 -10.9,-32.4c-0.3,-0.9 -0.2,-1.7 0.4,-2.5c0.5,-0.8 1.3,-1.2 2.3,-1.2h4.9c1.4,0 2.3,0.6 2.7,1.9l17.4,51.9c9.5,-28.2 15.3,-45.5 17.4,-51.9c0.4,-1.3 1.3,-1.9 2.7,-1.9h5.1c1.4,0 2.3,0.6 2.8,1.9l17.2,51.9c9.5,-28.2 15.3,-45.5 17.4,-51.9c0.5,-1.3 1.4,-1.9 2.7,-1.9h5.1c0.9,0 1.6,0.4 2.2,1.2z"/><path d="M517.53376,195.85h0.1v5.8c0,0.8 -0.3,1.5 -0.9,2c-0.6,0.5 -1.2,0.8 -1.9,0.8h-45.2c0.5,7.6 2.6,13.1 6.4,16.4c3.8,3.2 9.7,4.8 17.7,4.8c4.8,0 9.2,-1.4 13.2,-4.2c1.4,-1.1 2.6,-1 3.7,0.3c0.6,0.6 1.7,1.8 3.3,3.6c0.5,0.6 0.7,1.3 0.7,2.2c-0.1,0.8 -0.4,1.5 -1.1,2c-5.9,4.4 -12.5,6.5 -19.8,6.5c-10.6,0 -18.7,-2.4 -24.4,-7.3c-6.8,-5.8 -10.3,-15.7 -10.3,-29.4v-0.1c0,-13.5 2.8,-23.1 8.3,-28.8c4.9,-5.2 11.8,-7.7 20.9,-7.7c9.1,0 16.1,2.6 21,7.7c5.1,5.1 7.9,13.6 8.3,25.4zM469.43376,195.85h37.8c-0.3,-8.8 -2.1,-15 -5.5,-18.4c-2.8,-3.1 -7.2,-4.6 -13.4,-4.6c-6.1,0 -10.7,1.5 -13.5,4.6c-3.4,3.5 -5.2,9.6 -5.4,18.4z"/><path d="M572.03376,162.75c0.7,0.1 1.3,0.4 1.8,0.9c0.5,0.5 0.7,1.1 0.7,1.9v5.1c0,1 -0.4,1.8 -1.1,2.3c-0.7,0.5 -1.6,0.7 -2.5,0.5c-0.9,-0.3 -1.8,-0.4 -2.8,-0.4c-3.2,-0.1 -6.3,1 -9.3,3.3c-3,2.3 -5.6,4.8 -7.7,7.6c-1.9,2.5 -3.3,5.2 -4.3,8.2v39.4c0,0.8 -0.3,1.5 -0.9,2c-0.6,0.5 -1.2,0.8 -1.9,0.8h-4.8c-0.8,0 -1.5,-0.3 -2,-0.8c-0.5,-0.5 -0.8,-1.2 -0.8,-2v-64.5c0,-0.8 0.3,-1.5 0.8,-2c0.5,-0.5 1.2,-0.8 2,-0.8h4.8c0.8,0 1.5,0.3 2,0.8c0.5,0.5 0.8,1.2 0.8,2v8.9c0.3,-0.6 0.5,-1 0.7,-1.2c6.2,-8.3 13.8,-12.4 22.6,-12.2c0.8,0 1.4,0.1 1.9,0.2z"/></g></g></g></svg>