<svg version="1.1" xmlns="http://www.w3.org/2000/svg" xmlns:xlink="http://www.w3.org/1999/xlink" width="100.35101" height="100.04222" viewBox="0,0,100.35101,100.04222"><g transform="translate(-269.90888,-129.97889)"><g data-paper-data="{&quot;isPaintingLayer&quot;:true}" fill-rule="nonzero" stroke-linejoin="miter" stroke-miterlimit="10" stroke-dasharray="" stroke-dashoffset="0" style="mix-blend-mode: normal"><g stroke="#d9d9d9" stroke-width="1" stroke-linecap="butt"><path d="M270.50786,204.44129c0,-16.39527 0,-36.45796 0,-45.89072c0,-10.12116 14.87248,-24.01258 25.61343,-24.01258c9.94197,0 30.97395,0 48.02517,0c14.18399,0 25.61343,14.2343 25.61343,24.01259c0,9.08657 0,29.5233 0,45.89072c0,14.84131 -12.45503,25.07981 -23.47897,25.07981c-16.79206,0 -35.89961,0 -46.95795,0c-11.71631,0 -28.8151,-11.23171 -28.8151,-25.07981z" fill="#d9d9d9"/><path d="M270.40888,200.38219c0,-16.39527 0,-36.45797 0,-45.89072c0,-10.12116 14.87248,-24.01258 25.61343,-24.01258c9.94197,0 30.97394,0 48.02517,0c14.18399,0 25.61343,14.2343 25.61343,24.01259c0,9.08657 0,29.5233 0,45.89072c0,14.84131 -12.45503,25.07981 -23.47897,25.07981c-16.79206,0 -35.89961,0 -46.95795,0c-11.71631,0 -28.8151,-11.23171 -28.8151,-25.07981z" fill="#ffffff"/></g><g><path d="M350.73322,163.02158c11.82309,11.82309 4.94725,26.32944 -8.21747,39.49416c-13.16472,13.16472 -27.62915,20.08248 -39.49416,8.21747c-5.57614,-5.57614 -10.31376,-13.50013 -12.11658,-22.09493l-12.20042,-6.58236c-2.34785,-1.25777 -2.18015,-4.6957 0.20963,-5.65999l13.1228,-5.40843c1.50933,-3.94103 3.94103,-7.79821 7.54665,-11.40384c3.52177,-3.52177 7.37896,-5.95347 11.36191,-7.42088l5.45036,-13.24857c1.00622,-2.34784 4.44414,-2.51555 5.65999,-0.20963l6.66621,12.36812c8.51095,1.71896 16.47686,6.41466 22.01107,11.94887z" fill="#cccccc" stroke="none" stroke-width="1" stroke-linecap="butt"/><path d="M352.99721,175.6832c6.20503,6.20503 -0.20962,16.56072 -10.52338,26.87448c-10.31376,10.31376 -20.66945,16.72841 -26.87448,10.52338c-6.20503,-6.20503 -8.67865,-19.83093 4.44414,-32.95372c12.78739,-12.87124 26.7487,-10.64916 32.95372,-4.44414z" fill="#ffffff" stroke="none" stroke-width="1" stroke-linecap="butt"/><path d="M320.79817,184.99073c-0.83852,-0.83852 -0.1677,-2.01245 1.00622,-3.18637c1.17392,-1.17392 2.34785,-1.84474 3.18637,-1.00622c0.83852,0.83852 1.25777,2.51555 -0.20964,3.98296c-1.46741,1.46741 -3.14444,1.04815 -3.98296,0.20964z" fill="#949494" stroke="#000000" stroke-width="1.5" stroke-linecap="butt"/><path d="M309.56203,181.88822c-1.11144,-1.11144 -1.11144,-2.91344 0,-4.02488c1.11144,-1.11144 2.91344,-1.11144 4.02488,0c1.11144,1.11144 1.11144,2.91344 0,4.02488c-1.11144,1.11144 -2.91344,1.11144 -4.02488,0z" fill="#000000" stroke="none" stroke-width="1" stroke-linecap="butt"/><path d="M317.82142,173.62882c-1.11144,-1.11144 -1.11144,-2.91344 0,-4.02488c1.11144,-1.11144 2.91344,-1.11144 4.02488,0c1.11144,1.11144 1.11144,2.91344 0,4.02488c-1.11144,1.11144 -2.91344,1.11144 -4.02488,0z" fill="#000000" stroke="none" stroke-width="1" stroke-linecap="butt"/><path d="M290.48576,179.66615c-0.12578,2.55748 -0.16771,4.77955 0.50311,7.4628l-11.23613,-6.20502c-1.21586,-0.88045 -1.132,-2.72518 0.20964,-3.47985l11.82309,-4.8634c-1.132,2.64133 -1.21585,4.73762 -1.2997,7.08547z" fill="#787878" stroke="none" stroke-width="1" stroke-linecap="butt"/><path d="M312.74839,151.61774l4.8634,-11.82309c0.75467,-1.34163 2.5994,-1.42548 3.47984,-0.20963l6.20502,11.23613c-2.68325,-0.67081 -4.90533,-0.62889 -7.4628,-0.50311c-2.34785,0.08385 -4.44414,0.1677 -7.08547,1.2997z" fill="#787878" stroke="none" stroke-width="1" stroke-linecap="butt"/><path d="M332.70511,178.53414c1.97052,1.97052 1.92859,5.11496 -0.04192,7.08547c-1.97052,1.97052 -5.15688,1.97052 -7.08547,0.04192c-0.08386,-0.08386 -0.08385,-0.08385 -0.08385,-0.08385c-0.12578,-0.12578 -0.20963,-0.20963 -0.20963,-0.20963c0,0 0.08386,0.08386 0.20963,0.20963c0,0 0,0 0.08385,0.08385c1.97052,1.97052 1.92859,5.11496 -0.04192,7.08547c-1.97052,1.97052 -5.15688,1.97052 -7.08547,0.04192" fill="none" stroke="#000000" stroke-width="2.5" stroke-linecap="round"/></g></g></g></svg>