<svg version="1.1" xmlns="http://www.w3.org/2000/svg" xmlns:xlink="http://www.w3.org/1999/xlink" width="100.35101" height="100.04222" viewBox="0,0,100.35101,100.04222"><g transform="translate(-269.90888,-129.97889)"><g data-paper-data="{&quot;isPaintingLayer&quot;:true}" stroke-width="1" stroke-linecap="butt" stroke-linejoin="miter" stroke-miterlimit="10" stroke-dasharray="" stroke-dashoffset="0" style="mix-blend-mode: normal"><g fill-rule="nonzero" stroke="#d9d9d9"><path d="M270.50786,204.44129c0,-16.39527 0,-36.45796 0,-45.89072c0,-10.12116 14.87248,-24.01258 25.61343,-24.01258c9.94197,0 30.97395,0 48.02517,0c14.18399,0 25.61343,14.2343 25.61343,24.01259c0,9.08657 0,29.5233 0,45.89072c0,14.84131 -12.45503,25.07981 -23.47897,25.07981c-16.79206,0 -35.89961,0 -46.95795,0c-11.71631,0 -28.8151,-11.23171 -28.8151,-25.07981z" fill="#d9d9d9"/><path d="M270.40888,200.38219c0,-16.39527 0,-36.45797 0,-45.89072c0,-10.12116 14.87248,-24.01258 25.61343,-24.01258c9.94197,0 30.97394,0 48.02517,0c14.18399,0 25.61343,14.2343 25.61343,24.01259c0,9.08657 0,29.5233 0,45.89072c0,14.84131 -12.45503,25.07981 -23.47897,25.07981c-16.79206,0 -35.89961,0 -46.95795,0c-11.71631,0 -28.8151,-11.23171 -28.8151,-25.07981z" fill="#ffffff"/></g><g fill-rule="evenodd"><path d="M323.64671,158.79102l8.19789,-8.31904l2.62333,11.53127c0,0 4.91873,2.47099 8.03393,8.23663c3.1152,5.68332 2.62333,10.37815 2.62333,10.37815c0,0 5.49254,0.74134 6.31233,7.90716c1.47562,13.6728 -14.59224,22.73309 -35.33284,20.83871c-15.65801,-1.31786 -27.62693,-11.44896 -26.97109,-23.88622c0.65583,-11.20181 5.98451,-15.1554 5.98451,-15.1554l-1.80353,-18.94424l13.28058,9.30734c0,0 4.01692,-2.05911 8.60773,-2.30625c4.59082,-0.08232 8.44387,0.41187 8.44387,0.41187z" fill="#6b3c00" stroke="#6b3c00"/><path d="M323.0932,155.1762l8.19789,-8.31904l2.62333,11.53127c0,0 4.91873,2.47099 8.03393,8.23663c3.1152,5.68332 2.62333,10.37815 2.62333,10.37815c0,0 5.49254,0.74134 6.31233,7.90716c1.47562,13.6728 -14.59224,22.73309 -35.33284,20.83871c-15.65801,-1.31786 -27.62693,-11.44896 -26.97109,-23.88622c0.65583,-11.20181 5.98451,-15.1554 5.98451,-15.1554l-1.80353,-18.94424l13.28058,9.30734c0,0 4.01692,-2.05911 8.60773,-2.30625c4.59082,-0.08232 8.44387,0.41187 8.44387,0.41187z" fill="#d97900" stroke="#d97900"/></g></g></g></svg>