<svg version="1.1" xmlns="http://www.w3.org/2000/svg" xmlns:xlink="http://www.w3.org/1999/xlink" width="100.35101" height="100.04222" viewBox="0,0,100.35101,100.04222"><g transform="translate(-269.90888,-129.97889)"><g data-paper-data="{&quot;isPaintingLayer&quot;:true}" fill-rule="nonzero" stroke-linejoin="miter" stroke-miterlimit="10" stroke-dasharray="" stroke-dashoffset="0" style="mix-blend-mode: normal"><g stroke="#d9d9d9" stroke-width="1" stroke-linecap="butt"><path d="M270.50786,204.44129c0,-16.39527 0,-36.45796 0,-45.89072c0,-10.12116 14.87248,-24.01258 25.61343,-24.01258c9.94197,0 30.97395,0 48.02517,0c14.18399,0 25.61343,14.2343 25.61343,24.01259c0,9.08657 0,29.5233 0,45.89072c0,14.84131 -12.45503,25.07981 -23.47897,25.07981c-16.79206,0 -35.89961,0 -46.95795,0c-11.71631,0 -28.8151,-11.23171 -28.8151,-25.07981z" fill="#d9d9d9"/><path d="M270.40888,200.38219c0,-16.39527 0,-36.45797 0,-45.89072c0,-10.12116 14.87248,-24.01258 25.61343,-24.01258c9.94197,0 30.97394,0 48.02517,0c14.18399,0 25.61343,14.2343 25.61343,24.01259c0,9.08657 0,29.5233 0,45.89072c0,14.84131 -12.45503,25.07981 -23.47897,25.07981c-16.79206,0 -35.89961,0 -46.95795,0c-11.71631,0 -28.8151,-11.23171 -28.8151,-25.07981z" fill="#ffffff"/></g><g><path d="M304.27949,146.1946c11.82309,-11.82309 26.32944,-4.94725 39.49416,8.21747c13.16472,13.16472 20.08248,27.62915 8.21747,39.49416c-5.57614,5.57614 -13.50013,10.31376 -22.09493,12.11658l-6.58236,12.20042c-1.25777,2.34785 -4.6957,2.18015 -5.65999,-0.20963l-5.40843,-13.1228c-3.94103,-1.50933 -7.79821,-3.94103 -11.40384,-7.54665c-3.52177,-3.52177 -5.95347,-7.37896 -7.42088,-11.36191l-13.24857,-5.45036c-2.34784,-1.00622 -2.51555,-4.44414 -0.20963,-5.65999l12.36812,-6.66621c1.71896,-8.51095 6.41466,-16.47686 11.94887,-22.01107z" fill="#cccccc" stroke="none" stroke-width="1" stroke-linecap="butt"/><path d="M316.94112,143.93062c6.20503,-6.20503 16.56072,0.20962 26.87448,10.52338c10.31376,10.31376 16.72841,20.66945 10.52338,26.87448c-6.20503,6.20503 -19.83093,8.67865 -32.95372,-4.44414c-12.87124,-12.78739 -10.64916,-26.7487 -4.44414,-32.95372z" fill="#ffffff" stroke="none" stroke-width="1" stroke-linecap="butt"/><path d="M326.24864,176.12965c-0.83852,0.83852 -2.01245,0.1677 -3.18637,-1.00622c-1.17392,-1.17392 -1.84474,-2.34785 -1.00622,-3.18637c0.83852,-0.83852 2.51555,-1.25777 3.98296,0.20964c1.46741,1.46741 1.04815,3.14444 0.20964,3.98296z" fill="#949494" stroke="#000000" stroke-width="1.5" stroke-linecap="butt"/><path d="M323.14614,187.36579c-1.11144,1.11144 -2.91344,1.11144 -4.02488,0c-1.11144,-1.11144 -1.11144,-2.91344 0,-4.02488c1.11144,-1.11144 2.91344,-1.11144 4.02488,0c1.11144,1.11144 1.11144,2.91344 0,4.02488z" fill="#000000" stroke="none" stroke-width="1" stroke-linecap="butt"/><path d="M314.88674,179.1064c-1.11144,1.11144 -2.91344,1.11144 -4.02488,0c-1.11144,-1.11144 -1.11144,-2.91344 0,-4.02488c1.11144,-1.11144 2.91344,-1.11144 4.02488,0c1.11144,1.11144 1.11144,2.91344 0,4.02488z" fill="#000000" stroke="none" stroke-width="1" stroke-linecap="butt"/><path d="M320.92406,206.44207c2.55748,0.12578 4.77955,0.16771 7.4628,-0.50311l-6.20502,11.23613c-0.88045,1.21586 -2.72518,1.132 -3.47985,-0.20964l-4.8634,-11.82309c2.64133,1.132 4.73762,1.21585 7.08547,1.2997z" fill="#787878" stroke="none" stroke-width="1" stroke-linecap="butt"/><path d="M292.87566,184.17943l-11.82309,-4.8634c-1.34163,-0.75467 -1.42548,-2.5994 -0.20963,-3.47984l11.23613,-6.20502c-0.67081,2.68325 -0.62889,4.90533 -0.50311,7.4628c0.08385,2.34785 0.1677,4.44414 1.2997,7.08547z" fill="#787878" stroke="none" stroke-width="1" stroke-linecap="butt"/><path d="M319.79206,164.22272c1.97052,-1.97052 5.11496,-1.92859 7.08547,0.04192c1.97052,1.97052 1.97052,5.15688 0.04192,7.08547c-0.08386,0.08386 -0.08385,0.08385 -0.08385,0.08385c-0.12578,0.12578 -0.20963,0.20963 -0.20963,0.20963c0,0 0.08386,-0.08386 0.20963,-0.20963c0,0 0,0 0.08385,-0.08385c1.97052,-1.97052 5.11496,-1.92859 7.08547,0.04192c1.97052,1.97052 1.97052,5.15688 0.04192,7.08547" fill="none" stroke="#000000" stroke-width="2.5" stroke-linecap="round"/></g></g></g></svg>