<svg version="1.1" xmlns="http://www.w3.org/2000/svg" xmlns:xlink="http://www.w3.org/1999/xlink" width="100.35101" height="100.04222" viewBox="0,0,100.35101,100.04222"><g transform="translate(-269.90888,-129.97889)"><g data-paper-data="{&quot;isPaintingLayer&quot;:true}" fill-rule="nonzero" stroke-linejoin="miter" stroke-miterlimit="10" stroke-dasharray="" stroke-dashoffset="0" style="mix-blend-mode: normal"><g stroke="#d9d9d9" stroke-width="1" stroke-linecap="butt"><path d="M270.50786,204.44129c0,-16.39527 0,-36.45796 0,-45.89072c0,-10.12116 14.87248,-24.01258 25.61343,-24.01258c9.94197,0 30.97395,0 48.02517,0c14.18399,0 25.61343,14.2343 25.61343,24.01259c0,9.08657 0,29.5233 0,45.89072c0,14.84131 -12.45503,25.07981 -23.47897,25.07981c-16.79206,0 -35.89961,0 -46.95795,0c-11.71631,0 -28.8151,-11.23171 -28.8151,-25.07981z" fill="#d9d9d9"/><path d="M270.40888,200.38219c0,-16.39527 0,-36.45797 0,-45.89072c0,-10.12116 14.87248,-24.01258 25.61343,-24.01258c9.94197,0 30.97394,0 48.02517,0c14.18399,0 25.61343,14.2343 25.61343,24.01259c0,9.08657 0,29.5233 0,45.89072c0,14.84131 -12.45503,25.07981 -23.47897,25.07981c-16.79206,0 -35.89961,0 -46.95795,0c-11.71631,0 -28.8151,-11.23171 -28.8151,-25.07981z" fill="#ffffff"/></g><g><path d="M307.20174,212.4793c-16.72037,0 -22.11596,-15.11949 -22.11596,-33.73722c0,-18.61773 5.3363,-33.73722 22.11596,-33.73722c7.88585,0 16.83896,2.2531 24.19119,7.05576l13.28143,-3.97257c2.54956,-0.7708 4.86196,1.77876 3.85399,4.15045l-5.45488,13.10356c1.71947,3.85399 2.72744,8.3009 2.72745,13.40002c0,4.98053 -1.00797,9.42745 -2.78673,13.28144l5.51417,13.22214c0.94867,2.37168 -1.36372,4.92124 -3.85399,4.15045l-13.4593,-4.03186c-7.23364,4.80266 -16.18675,7.11505 -24.0133,7.11505z" fill="#cccccc" stroke="none" stroke-width="1" stroke-linecap="butt"/><path d="M296.64774,205.12705c-8.77524,0 -11.56197,-11.85842 -11.56197,-26.44428c0,-14.58586 2.78674,-26.44428 11.56197,-26.44428c8.77524,0 20.15932,7.88585 20.15932,26.44428c0.05929,18.14339 -11.38409,26.44428 -20.15932,26.44428z" fill="#ffffff" stroke="none" stroke-width="1" stroke-linecap="butt"/><path d="M312.83448,175.77749c1.18585,0 1.5416,1.30444 1.5416,2.96461c0,1.66017 -0.35575,2.96461 -1.5416,2.96461c-1.18585,0 -2.66814,-0.88938 -2.66814,-2.96462c0,-2.07523 1.4823,-2.96461 2.66814,-2.96462z" fill="#949494" stroke="#000000" stroke-width="1.5" stroke-linecap="butt"/><path d="M322.97343,170.02613c1.57181,0 2.84602,1.27421 2.84602,2.84602c0,1.57181 -1.27421,2.84602 -2.84602,2.84602c-1.57181,0 -2.84602,-1.27421 -2.84602,-2.84602c0,-1.57181 1.27421,-2.84602 2.84602,-2.84602z" fill="#000000" stroke="none" stroke-width="1" stroke-linecap="butt"/><path d="M322.97344,181.70669c1.57181,0 2.84602,1.27421 2.84602,2.84602c0,1.57181 -1.27421,2.84602 -2.84602,2.84602c-1.57181,0 -2.84602,-1.27421 -2.84602,-2.84602c0,-1.57181 1.27421,-2.84602 2.84602,-2.84602z" fill="#000000" stroke="none" stroke-width="1" stroke-linecap="butt"/><path d="M338.03365,158.10842c-1.71947,-1.89735 -3.26106,-3.49824 -5.63275,-4.92124l12.33276,-3.55753c1.48232,-0.23717 2.72744,1.12655 2.31239,2.60886l-4.92124,11.79913c-1.06726,-2.66815 -2.49027,-4.20974 -4.09116,-5.92921z" fill="#787878" stroke="none" stroke-width="1" stroke-linecap="butt"/><path d="M342.1248,193.6837l4.92124,11.79913c0.41504,1.48231 -0.83009,2.84602 -2.31239,2.60885l-12.33276,-3.55753c2.37168,-1.42301 3.91328,-3.0239 5.63275,-4.92124c1.60089,-1.71947 3.0239,-3.26106 4.09116,-5.92921z" fill="#787878" stroke="none" stroke-width="1" stroke-linecap="butt"/><path d="M308.9805,188.76245c-2.78674,0 -4.98054,-2.2531 -4.98054,-5.03983c0,-2.78674 2.2531,-5.03983 4.98054,-5.03983c0.1186,0 0.11858,0 0.11858,0c0.17788,0 0.29646,0 0.29646,0c0,0 -0.1186,0 -0.29646,0c0,0 0,0 -0.11858,0c-2.78674,0 -4.98054,-2.2531 -4.98054,-5.03983c0,-2.78674 2.2531,-5.03983 4.98054,-5.03983" fill="none" stroke="#000000" stroke-width="2.5" stroke-linecap="round"/></g></g></g></svg>